# xmcd
#
# Track frame offsets: 
#        150
#        23696
#        44941
#        59104
#        79431
#        94661
#        113738
#        133388
#        152094
#        170070
#        185600
#        215399
#        233325
#        253843
#        276352
#
# Disc length: 4006 seconds
#
# Revision: 1
# Processed by: cddbd v1.5.2PL0 Copyright (c) Steve Scherf et al.
# Submitted via: ExactAudioCopy v0.99pb5
#
DISCID=e30fa40f
DTITLE=Various Artist - LIVING THE BLUES - BLUES ROCK
DYEAR=2001
DGENRE=
TTITLE0=MICHAEL HILLS BLUES MOB - Hard Blues For Hard Times (1994)
TTITLE1=RORY GALLAGHER - Cruise On Out (1978)
TTITLE2=ELVIN BISHOP - Don't Lie To Me (1988)
TTITLE3=TAJ MAHAL - Dust My Broom (1967)
TTITLE4=JEFF HEALEY - Don't Let Your Chance Go By (1988)
TTITLE5=JOHN MAYALL - John Lee Boogie (1980)
TTITLE6=BLOOMFIELD and KOOPER - Stop (1968)
TTITLE7=ALBERT COLLINS - I Ain't Drunk (1986)
TTITLE8=BOB MARGOLIN - Movin' South (1995)
TTITLE9=PALADINS - Years Since Yesterday (1988)
TTITLE10=JOHNNY WINTER - Third Degree (1986)
TTITLE11=LUCKY PETERSON - Over My Head (1989)
TTITLE12=LONNIE MACK - Satisfy Suzie (1985)
TTITLE13=JEFF BECK GROUP - Tonight I'll Be Staying Here With You (1972
TTITLE13=)
TTITLE14=STEVIE RAY VAUGHN - Texas Flood (1983)
EXTD=
EXTT0=
EXTT1=
EXTT2=
EXTT3=
EXTT4=
EXTT5=
EXTT6=
EXTT7=
EXTT8=
EXTT9=
EXTT10=
EXTT11=
EXTT12=
EXTT13=
EXTT14=
PLAYORDER=
